<?xml version="1.0" standalone="no"?>
<svg xmlns="http://www.w3.org/2000/svg" viewBox="0 0 94.996 29" width="94.996" height="29"><g fill="#a16aff" color="#a16aff" transform="translate(0, 0) scale(0.5686275)"><svg width="44.0" height="51.0" x="0.0" y="0.0" viewBox="0 0 44 51"><path fill="currentColor" fill-rule="evenodd" d="M21.998 0L0 12.571v25.143l4.19 2.395V15.002L21.999 4.827 39.81 15.002v20.28L21.998 45.459l-9.427-5.388V19.865l9.427-5.386 9.43 5.386v10.553l-9.43 5.387-1.045-.597V24.73l5.268-3.012-4.223-2.413-5.236 2.994v15.34l5.236 2.993 13.62-7.784V17.435l-13.62-7.781-13.617 7.78v25.068l13.617 7.784L44 37.714V12.571z"></path></svg></g><line x1="37.02" y1="1" x2="37.02" y2="28" stroke="#5e00ff" stroke-linecap="round"></line><path fill="#5e00ff" fill-rule="nonzero" d="M15.70 17.86L12.05 18.14L12.05 4.63L8.69 18L6.53 18L2.90 4.58L2.90 17.86L0 18L0 0.17L5.16 0.02L8.14 11.16L10.99 0.43L15.70 0.14L15.70 17.86ZM19.06 18L19.06 0L23.09 0Q26.35 0 27.84 1.27Q29.33 2.54 29.33 4.63L29.33 4.63Q29.33 5.95 28.81 6.96Q28.30 7.97 27.38 8.42L27.38 8.42Q28.54 9.02 29.21 10.02Q29.88 11.02 29.88 12.96L29.88 12.96Q29.88 18 21.94 18L21.94 18L19.06 18ZM22.46 7.32L23.30 7.32Q24.70 7.32 25.38 6.86Q26.06 6.41 26.06 4.99L26.06 4.99Q26.06 3.74 25.28 3.28Q24.50 2.81 23.16 2.81L23.16 2.81L22.46 2.81L22.46 7.32ZM22.58 15.19L23.23 15.19Q24.96 15.19 25.73 14.34Q26.50 13.49 26.50 12.48L26.50 12.48Q26.50 10.92 25.67 10.40Q24.84 9.89 23.35 9.89L23.35 9.89L22.58 9.89L22.58 15.19ZM47.98 17.86L44.33 18.14L44.33 4.63L40.97 18L38.81 18L35.18 4.58L35.18 17.86L32.28 18L32.28 0.17L37.44 0.02L40.42 11.16L43.27 0.43L47.98 0.14L47.98 17.86Z" transform="translate(47.02, 5.429)"></path></svg>